# Tiled2Unity generated file. Do not modify by hand.
# Wavefront file for 'ZeldaMap_mesh_0002.obj'

# Vertices (Count = 80)
v -16 -21 0
v -17 -21 0
v -17 -20 0
v -16 -20 0
v -15 -21 0
v -16 -21 0
v -16 -20 0
v -15 -20 0
v -16 -20 0
v -17 -20 0
v -17 -19 0
v -16 -19 0
v -15 -20 0
v -16 -20 0
v -16 -19 0
v -15 -19 0
v -4 -17 0
v -5 -17 0
v -5 -16 0
v -4 -16 0
v -3 -17 0
v -4 -17 0
v -4 -16 0
v -3 -16 0
v -26 -16 0
v -27 -16 0
v -27 -15 0
v -26 -15 0
v -25 -16 0
v -26 -16 0
v -26 -15 0
v -25 -15 0
v -4 -16 0
v -5 -16 0
v -5 -15 0
v -4 -15 0
v -3 -16 0
v -4 -16 0
v -4 -15 0
v -3 -15 0
v -26 -15 0
v -27 -15 0
v -27 -14 0
v -26 -14 0
v -25 -15 0
v -26 -15 0
v -26 -14 0
v -25 -14 0
v -16 -5 0
v -17 -5 0
v -17 -4 0
v -16 -4 0
v -15 -5 0
v -16 -5 0
v -16 -4 0
v -15 -4 0
v -16 -4 0
v -17 -4 0
v -17 -3 0
v -16 -3 0
v -15 -4 0
v -16 -4 0
v -16 -3 0
v -15 -3 0
v -3 -4 0
v -4 -4 0
v -4 -3 0
v -3 -3 0
v -2 -4 0
v -3 -4 0
v -3 -3 0
v -2 -3 0
v -3 -3 0
v -4 -3 0
v -4 -2 0
v -3 -2 0
v -2 -3 0
v -3 -3 0
v -3 -2 0
v -2 -2 0

# Texture cooridinates (Count = 9)
vt 0.9 0.6666666
vt 1 0.6666666
vt 1 0.7777778
vt 0.9 0.7777778
vt 0.8 0.6666666
vt 0.8 0.7777778
vt 1 0.8888889
vt 0.9 0.8888889
vt 0.8 0.8888889

# Normal
vn 0 0 -1

# Mesh description
g ZeldaMap_mesh_0002

# Faces
f 1/1/1 2/2/1 3/3/1 4/4/1
f 5/5/1 6/1/1 7/4/1 8/6/1
f 9/4/1 10/3/1 11/7/1 12/8/1
f 13/6/1 14/4/1 15/8/1 16/9/1
f 17/1/1 18/2/1 19/3/1 20/4/1
f 21/5/1 22/1/1 23/4/1 24/6/1
f 25/1/1 26/2/1 27/3/1 28/4/1
f 29/5/1 30/1/1 31/4/1 32/6/1
f 33/4/1 34/3/1 35/7/1 36/8/1
f 37/6/1 38/4/1 39/8/1 40/9/1
f 41/4/1 42/3/1 43/7/1 44/8/1
f 45/6/1 46/4/1 47/8/1 48/9/1
f 49/1/1 50/2/1 51/3/1 52/4/1
f 53/5/1 54/1/1 55/4/1 56/6/1
f 57/4/1 58/3/1 59/7/1 60/8/1
f 61/6/1 62/4/1 63/8/1 64/9/1
f 65/1/1 66/2/1 67/3/1 68/4/1
f 69/5/1 70/1/1 71/4/1 72/6/1
f 73/4/1 74/3/1 75/7/1 76/8/1
f 77/6/1 78/4/1 79/8/1 80/9/1

